<svg width="60" height="60" viewBox="0 0 60 60" fill="none" xmlns="http://www.w3.org/2000/svg">
<path d="M25 11.25C25 10.9185 25.1317 10.6005 25.3661 10.3661C25.6005 10.1317 25.9185 10 26.25 10H36.25C36.5815 10 36.8995 10.1317 37.1339 10.3661C37.3683 10.6005 37.5 10.9185 37.5 11.25V21.25H25V11.25ZM27.5 12.5V15H30V12.5H27.5ZM32.5 12.5V15H35V12.5H32.5ZM25 22.5C24.337 22.5 23.7011 22.7634 23.2322 23.2322C22.7634 23.7011 22.5 24.337 22.5 25V35.985C22.5 37.22 22.865 38.425 23.55 39.4525L26.145 43.3475C27.03 44.6725 27.5 46.2275 27.5 47.82C27.5 49.0225 28.475 50 29.68 50H32.82C34.0225 50 35 49.025 35 47.82C35 46.2275 35.47 44.67 36.3525 43.3475L38.9525 39.4525C39.6363 38.4254 40.0008 37.2189 40 35.985V25C40 24.337 39.7366 23.7011 39.2678 23.2322C38.7989 22.7634 38.163 22.5 37.5 22.5H25ZM25 25H37.5V35.985C37.4999 36.7253 37.2807 37.4491 36.87 38.065L34.275 41.96C33.1781 43.6046 32.5648 45.5241 32.505 47.5H29.995C29.9359 45.5243 29.3235 43.6049 28.2275 41.96L25.6275 38.065C25.2177 37.4488 24.9993 36.7251 25 35.985V25Z" fill="#4A4A4A"/>
</svg>
