<svg width="60" height="60" viewBox="0 0 60 60" fill="none" xmlns="http://www.w3.org/2000/svg">
<path d="M12.5 18.75C12.5 17.7554 12.8951 16.8016 13.5984 16.0983C14.3016 15.3951 15.2555 15 16.25 15H23.16C25.555 15 27.56 16.4 28.9375 17.96C29.9625 19.12 31.2 20 32.5 20H43.75C44.7446 20 45.6984 20.3951 46.4017 21.0984C47.1049 21.8016 47.5 22.7554 47.5 23.75V25.35C48.925 26.0125 49.85 27.54 49.64 29.215L48.04 42.025C47.851 43.5376 47.1157 44.929 45.9725 45.9373C44.8292 46.9457 43.3569 47.5014 41.8325 47.5H18.165C16.6415 47.5002 15.1704 46.9439 14.0282 45.9357C12.886 44.9274 12.1514 43.5368 11.9625 42.025L10.3625 29.215C10.264 28.4275 10.4178 27.629 10.8019 26.9344C11.186 26.2399 11.7806 25.6851 12.5 25.35V18.75ZM15 25H45V23.75C45 23.4185 44.8683 23.1005 44.6339 22.8661C44.3995 22.6317 44.0816 22.5 43.75 22.5H32.5C30.09 22.5 28.225 20.9275 27.065 19.615C25.935 18.335 24.55 17.5 23.16 17.5H16.25C15.9185 17.5 15.6006 17.6317 15.3661 17.8661C15.1317 18.1005 15 18.4185 15 18.75V25ZM14.0825 27.5C13.9053 27.5001 13.7302 27.5378 13.5686 27.6107C13.4071 27.6836 13.2629 27.79 13.1457 27.9229C13.0284 28.0557 12.9408 28.212 12.8885 28.3813C12.8362 28.5507 12.8206 28.7292 12.8425 28.905L14.4425 41.715C14.5559 42.6222 14.9968 43.4568 15.6823 44.0617C16.3678 44.6667 17.2508 45.0004 18.165 45H41.835C42.7493 45.0004 43.6322 44.6667 44.3177 44.0617C45.0033 43.4568 45.4442 42.6222 45.5575 41.715L47.1575 28.905C47.1795 28.7292 47.1638 28.5507 47.1116 28.3813C47.0593 28.212 46.9716 28.0557 46.8544 27.9229C46.7371 27.79 46.5929 27.6836 46.4314 27.6107C46.2699 27.5378 46.0947 27.5001 45.9175 27.5C33.4852 27.5 26.5149 27.5 14.0825 27.5Z" fill="#4A4A4A"/>
</svg>
