<svg width="60" height="60" viewBox="0 0 60 60" fill="none" xmlns="http://www.w3.org/2000/svg">
<path d="M25.8086 23.3334H11.8932C11.6056 23.3334 11.153 23.419 10.8826 23.5249L6.75232 25.1379H24.8256L25.8086 23.3334Z" fill="#4A4A4A"/>
<path d="M25.248 25.1378H53.332L49.5816 23.5401C49.3138 23.4263 48.8637 23.3334 48.5762 23.3334H26.0205L26.1778 23.4336L25.248 25.1378Z" fill="#4A4A4A"/>
<path d="M52.7148 30.5643V30.2397H52.1839H7.73958H7.28532V30.5434L5.4231 31.7901H54.7208L52.7148 30.5643Z" fill="#4A4A4A"/>
<path d="M24.6392 36.6668V32.3536H5.27932L5.00167 36.105C4.97878 36.4155 5.19335 36.6668 5.48096 36.6668H24.6392Z" fill="#4A4A4A"/>
<path d="M25.0038 32.3536V36.6668H54.5192C54.8067 36.6668 55.0213 36.4155 54.9984 36.105L54.7207 32.3536H25.0038Z" fill="#4A4A4A"/>
<path d="M5.98067 29.8788H8.36123H51.5066H54.0198C54.3069 29.8788 54.5211 29.6246 54.4983 29.3105L54.2627 26.0834C54.2543 25.9672 54.2071 25.8658 54.1457 25.7756C54.1082 25.721 54.0657 25.6748 54.0146 25.6355C53.9225 25.5648 53.817 25.5151 53.7005 25.5151H25.0409L25.0112 25.5699V25.7146V25.9141V29.6217V29.8782H24.6476V29.6217V25.9141V25.7146V25.5151H6.29946C6.18243 25.5151 6.07637 25.5653 5.98373 25.6366C5.93325 25.6759 5.89118 25.7221 5.8537 25.7763C5.79285 25.8663 5.74602 25.9678 5.73718 26.0835L5.5016 29.3105C5.47925 29.624 5.6935 29.8788 5.98067 29.8788ZM51.955 26.7201V28.3901C51.955 28.3992 51.9622 28.4072 51.9711 28.4072H51.955L52.4257 28.4078C52.4345 28.4078 52.4417 28.4158 52.4417 28.4249V28.6552C52.4417 28.6649 52.4345 28.6728 52.4257 28.6728H51.9711C51.9627 28.6728 51.955 28.6808 51.955 28.6905V28.9202C51.955 28.9299 51.9477 28.9379 51.9389 28.9379H51.4833C51.4749 28.9379 51.4677 28.9299 51.4677 28.9202V28.686C51.4661 28.6785 51.4604 28.6734 51.4531 28.6728H48.9175C48.7994 28.6728 48.7407 28.637 48.7183 28.5845C48.6922 28.5241 48.7282 28.4426 48.8358 28.3702L51.566 26.5332C51.7927 26.3792 51.955 26.4636 51.955 26.7201ZM46.7901 28.2709V27.1236C46.7901 26.7462 47.0003 26.4561 47.4299 26.4561H48.9107C48.919 26.4561 48.9264 26.464 48.9264 26.4737V26.704C48.9264 26.7132 48.9196 26.7212 48.9107 26.7212H47.5906C47.3774 26.7212 47.2765 26.8893 47.2765 27.1235V28.272C47.2765 28.6499 47.0658 28.9388 46.6368 28.9388H45.0842C45.0754 28.9388 45.0681 28.9309 45.0681 28.9212V28.6909C45.0681 28.6812 45.0754 28.6733 45.0838 28.6733H46.4761C46.6887 28.6727 46.7901 28.5046 46.7901 28.2709ZM44.3752 26.7212H41.8573C41.8485 26.7212 41.8413 26.7132 41.8413 26.7035V26.4733C41.8413 26.4636 41.8486 26.4561 41.8573 26.4561H44.536C44.9656 26.4561 45.1757 26.7462 45.1757 27.1241C45.1757 27.5013 44.9656 27.791 44.536 27.791H42.6266C42.4504 27.791 42.3271 27.9545 42.3271 28.1883V28.9212C42.3271 28.9309 42.3198 28.9388 42.311 28.9388H41.8569C41.8481 28.9388 41.8408 28.9314 41.8408 28.9212V28.1883C41.8408 27.8103 42.0738 27.5259 42.3828 27.5259H44.3744C44.5876 27.5259 44.689 27.3578 44.689 27.1242C44.6899 26.8893 44.5886 26.7212 44.3752 26.7212Z" fill="#4A4A4A"/>
<path d="M51.4838 28.3908C51.4926 28.3908 51.5 28.3829 51.5 28.3733V26.9643C51.5 26.9327 51.4754 26.9311 51.4609 26.9412L49.3423 28.3519C49.3299 28.361 49.3241 28.3689 49.3266 28.3801C49.3293 28.3869 49.3381 28.3914 49.3553 28.3914H51.4837V28.3908H51.4838Z" fill="#4A4A4A"/>
</svg>
